<?xml version="1.0"?>
<svg xmlns="http://www.w3.org/2000/svg" xmlns:xlink="http://www.w3.org/1999/xlink" xmlns:svgjs="http://svgjs.com/svgjs" version="1.1" width="512" height="512" x="0" y="0" viewBox="0 0 24 24" style="enable-background:new 0 0 512 512" xml:space="preserve"><g><path xmlns="http://www.w3.org/2000/svg" d="M0,7A1,1,0,0,1,1,6H18V2.639a.792.792,0,0,1,1.35-.552l4.418,4.361a.773.773,0,0,1,0,1.1L19.35,11.913A.792.792,0,0,1,18,11.361V8H1A1,1,0,0,1,0,7Zm23,9H6V12.639a.792.792,0,0,0-1.35-.552L.232,16.448a.773.773,0,0,0,0,1.1L4.65,21.913A.792.792,0,0,0,6,21.361V18H23a1,1,0,0,0,0-2Z" fill="#a4b4cd" data-original="#000000"/></g></svg>
